<svg width="32" height="32" viewBox="0 0 32 32" fill="none" xmlns="http://www.w3.org/2000/svg">
<path fill-rule="evenodd" clip-rule="evenodd" d="M8.00008 5.33301H24.0001C25.4146 5.33301 26.7711 5.89491 27.7713 6.8951C28.7715 7.8953 29.3334 9.25185 29.3334 10.6663V23.9997C29.3334 25.4142 28.7715 26.7707 27.7713 27.7709C26.7711 28.7711 25.4146 29.333 24.0001 29.333H8.00008C6.58559 29.333 5.22904 28.7711 4.22885 27.7709C3.22865 26.7707 2.66675 25.4142 2.66675 23.9997V10.6663C2.66675 9.25185 3.22865 7.8953 4.22885 6.8951C5.22904 5.89491 6.58559 5.33301 8.00008 5.33301ZM8.00008 7.99967C7.29284 7.99967 6.61456 8.28063 6.11446 8.78072C5.61437 9.28082 5.33341 9.9591 5.33341 10.6663V23.9997C5.33341 24.7069 5.61437 25.3852 6.11446 25.8853C6.61456 26.3854 7.29284 26.6663 8.00008 26.6663H24.0001C24.7073 26.6663 25.3856 26.3854 25.8857 25.8853C26.3858 25.3852 26.6667 24.7069 26.6667 23.9997V10.6663C26.6667 9.9591 26.3858 9.28082 25.8857 8.78072C25.3856 8.28063 24.7073 7.99967 24.0001 7.99967H8.00008Z" fill="#BFC0C0"/>
<path fill-rule="evenodd" clip-rule="evenodd" d="M4 13.3332C4 12.9795 4.14048 12.6404 4.39052 12.3904C4.64057 12.1403 4.97971 11.9998 5.33333 11.9998H26.6667C27.0203 11.9998 27.3594 12.1403 27.6095 12.3904C27.8595 12.6404 28 12.9795 28 13.3332C28 13.6868 27.8595 14.0259 27.6095 14.276C27.3594 14.526 27.0203 14.6665 26.6667 14.6665H5.33333C4.97971 14.6665 4.64057 14.526 4.39052 14.276C4.14048 14.0259 4 13.6868 4 13.3332ZM10.6667 2.6665C11.0203 2.6665 11.3594 2.80698 11.6095 3.05703C11.8595 3.30708 12 3.64622 12 3.99984V9.33317C12 9.68679 11.8595 10.0259 11.6095 10.276C11.3594 10.526 11.0203 10.6665 10.6667 10.6665C10.313 10.6665 9.97391 10.526 9.72386 10.276C9.47381 10.0259 9.33333 9.68679 9.33333 9.33317V3.99984C9.33333 3.64622 9.47381 3.30708 9.72386 3.05703C9.97391 2.80698 10.313 2.6665 10.6667 2.6665ZM21.3333 2.6665C21.687 2.6665 22.0261 2.80698 22.2761 3.05703C22.5262 3.30708 22.6667 3.64622 22.6667 3.99984V9.33317C22.6667 9.68679 22.5262 10.0259 22.2761 10.276C22.0261 10.526 21.687 10.6665 21.3333 10.6665C20.9797 10.6665 20.6406 10.526 20.3905 10.276C20.1405 10.0259 20 9.68679 20 9.33317V3.99984C20 3.64622 20.1405 3.30708 20.3905 3.05703C20.6406 2.80698 20.9797 2.6665 21.3333 2.6665Z" fill="#BFC0C0"/>
</svg>
