<svg width="32" height="32" viewBox="0 0 32 32" fill="none" xmlns="http://www.w3.org/2000/svg">
<path fill-rule="evenodd" clip-rule="evenodd" d="M10.3906 26.2759C10.1407 26.0259 10.0002 25.6868 10.0002 25.3332C10.0002 24.9797 10.1407 24.6406 10.3906 24.3906L18.7813 15.9999L10.3906 7.60923C10.1477 7.35776 10.0134 7.02095 10.0164 6.67136C10.0194 6.32176 10.1597 5.98734 10.4069 5.74013C10.6541 5.49292 10.9885 5.3527 11.3381 5.34966C11.6877 5.34662 12.0245 5.48101 12.276 5.72389L20.6666 14.1146C21.1665 14.6146 21.4474 15.2928 21.4474 15.9999C21.4474 16.707 21.1665 17.3851 20.6666 17.8852L12.276 26.2759C12.0259 26.5259 11.6868 26.6663 11.3333 26.6663C10.9797 26.6663 10.6407 26.5259 10.3906 26.2759Z" fill="url(#paint0_linear_30_173)"/>
<defs>
<linearGradient id="paint0_linear_30_173" x1="15.7238" y1="5.34961" x2="15.7238" y2="26.6663" gradientUnits="userSpaceOnUse">
<stop stop-color="#222237"/>
<stop offset="1" stop-color="#7476FD"/>
</linearGradient>
</defs>
</svg>
