<svg width="32" height="32" viewBox="0 0 32 32" fill="none" xmlns="http://www.w3.org/2000/svg">
<path fill-rule="evenodd" clip-rule="evenodd" d="M7.05737 7.05737C7.30741 6.80741 7.64649 6.66699 8.00004 6.66699C8.35359 6.66699 8.69267 6.80741 8.94271 7.05737L25.9134 24.0267C26.1563 24.2782 26.2906 24.615 26.2876 24.9646C26.2846 25.3142 26.1443 25.6486 25.8971 25.8958C25.6499 26.143 25.3155 26.2832 24.9659 26.2863C24.6163 26.2893 24.2795 26.1549 24.028 25.912L7.05737 8.94271C6.80741 8.69267 6.66699 8.35359 6.66699 8.00004C6.66699 7.64649 6.80741 7.30741 7.05737 7.05737Z" fill="#222237"/>
<path fill-rule="evenodd" clip-rule="evenodd" d="M26.276 7.05737C26.526 7.30741 26.6664 7.64649 26.6664 8.00004C26.6664 8.35359 26.526 8.69267 26.276 8.94271L9.30532 25.9134C9.18233 26.0407 9.0352 26.1423 8.87253 26.2122C8.70986 26.2821 8.5349 26.3188 8.35786 26.3204C8.18082 26.3219 8.00525 26.2882 7.84138 26.2211C7.67752 26.1541 7.52865 26.0551 7.40346 25.9299C7.27827 25.8047 7.17927 25.6558 7.11223 25.492C7.04519 25.3281 7.01145 25.1525 7.01299 24.9755C7.01453 24.7985 7.05131 24.6235 7.12119 24.4608C7.19107 24.2982 7.29264 24.151 7.41999 24.028L24.3907 7.05737C24.6407 6.80741 24.9798 6.66699 25.3333 6.66699C25.6869 6.66699 26.026 6.80741 26.276 7.05737Z" fill="#222237"/>
</svg>
