<svg width="36" height="36" viewBox="0 0 36 36" fill="none" xmlns="http://www.w3.org/2000/svg">
<path fill-rule="evenodd" clip-rule="evenodd" d="M3 10.2855C3 8.35326 3.76758 6.50017 5.13387 5.13387C6.50017 3.76758 8.35326 3 10.2855 3H18C18.3978 3 18.7794 3.15804 19.0607 3.43934C19.342 3.72064 19.5 4.10218 19.5 4.5C19.5 4.89782 19.342 5.27936 19.0607 5.56066C18.7794 5.84196 18.3978 6 18 6H10.2855C9.14891 6 8.05888 6.45151 7.25519 7.25519C6.45151 8.05888 6 9.14891 6 10.2855V25.7145C6 26.8511 6.45151 27.9411 7.25519 28.7448C8.05888 29.5485 9.14891 30 10.2855 30H25.7145C26.8511 30 27.9411 29.5485 28.7448 28.7448C29.5485 27.9411 30 26.8511 30 25.7145V18C30 17.6022 30.158 17.2206 30.4393 16.9393C30.7206 16.658 31.1022 16.5 31.5 16.5C31.8978 16.5 32.2794 16.658 32.5607 16.9393C32.842 17.2206 33 17.6022 33 18V25.7145C33 27.6467 32.2324 29.4998 30.8661 30.8661C29.4998 32.2324 27.6467 33 25.7145 33H10.2855C8.35326 33 6.50017 32.2324 5.13387 30.8661C3.76758 29.4998 3 27.6467 3 25.7145V10.2855Z" fill="url(#paint0_linear_30_430)"/>
<path fill-rule="evenodd" clip-rule="evenodd" d="M22.7054 19.8283L19.3979 21.8233L17.8484 19.2538L21.1559 17.2588L21.1604 17.2558C21.2872 17.1794 21.404 17.0877 21.5084 16.9828L29.0234 9.42879C29.0987 9.35289 29.1712 9.27435 29.2409 9.19329C29.7374 8.61429 30.4724 7.46829 29.5829 6.57429C28.8314 5.81829 27.7544 6.53229 27.0569 7.14579C26.8698 7.31073 26.6896 7.48338 26.5169 7.66329L26.4659 7.71429L19.0559 15.1618C18.8799 15.3367 18.7421 15.5461 18.6509 15.7768L17.4149 18.8863C17.3914 18.9448 17.387 19.0092 17.4023 19.0704C17.4175 19.1315 17.4516 19.1863 17.4998 19.227C17.5479 19.2677 17.6076 19.2922 17.6705 19.297C17.7333 19.3018 17.7946 19.2867 17.8484 19.2538L19.3979 21.8233C16.6904 23.4553 13.4579 20.7133 14.6279 17.7763L15.8654 14.6683C16.1063 14.0609 16.4687 13.5092 16.9304 13.0468L24.3389 5.59779L24.3824 5.55429C24.6029 5.32929 25.3439 4.57029 26.2424 4.02429C26.7329 3.72879 27.5159 3.33729 28.4834 3.26229C29.5934 3.17379 30.7784 3.52329 31.7084 4.45779C32.4202 5.16097 32.8679 6.08805 32.9759 7.08279C33.0502 7.85813 32.9317 8.63982 32.6309 9.35829C32.1959 10.4338 31.4699 11.2243 31.1504 11.5438L23.6354 19.0978C23.3554 19.3788 23.0454 19.6223 22.7054 19.8283ZM29.3849 9.13929C29.3849 9.13929 29.3789 9.14379 29.3654 9.14829L29.3849 9.13929Z" fill="url(#paint1_linear_30_430)"/>
<defs>
<linearGradient id="paint0_linear_30_430" x1="18" y1="3" x2="18" y2="33" gradientUnits="userSpaceOnUse">
<stop stop-color="#222237"/>
<stop offset="1" stop-color="#282985"/>
</linearGradient>
<linearGradient id="paint1_linear_30_430" x1="23.6895" y1="3.24902" x2="23.6895" y2="22.3116" gradientUnits="userSpaceOnUse">
<stop stop-color="#222237"/>
<stop offset="1" stop-color="#282985"/>
</linearGradient>
</defs>
</svg>
