<svg width="32" height="32" viewBox="0 0 32 32" fill="none" xmlns="http://www.w3.org/2000/svg">
<path fill-rule="evenodd" clip-rule="evenodd" d="M27.9999 22.6665C27.9999 24.4346 27.2975 26.1303 26.0473 27.3805C24.7971 28.6308 23.1014 29.3332 21.3333 29.3332H14.6666C14.313 29.3332 13.9738 29.1927 13.7238 28.9426C13.4737 28.6926 13.3333 28.3535 13.3333 27.9998C13.3333 27.6462 13.4737 27.3071 13.7238 27.057C13.9738 26.807 14.313 26.6665 14.6666 26.6665H21.3333C22.3941 26.6665 23.4115 26.2451 24.1617 25.4949C24.9118 24.7448 25.3333 23.7274 25.3333 22.6665V9.33317C25.3333 8.2723 24.9118 7.25489 24.1617 6.50474C23.4115 5.7546 22.3941 5.33317 21.3333 5.33317H14.6666C14.313 5.33317 13.9738 5.19269 13.7238 4.94265C13.4737 4.6926 13.3333 4.35346 13.3333 3.99984C13.3333 3.64622 13.4737 3.30708 13.7238 3.05703C13.9738 2.80698 14.313 2.6665 14.6666 2.6665H21.3333C23.1014 2.6665 24.7971 3.36888 26.0473 4.61913C27.2975 5.86937 27.9999 7.56506 27.9999 9.33317V22.6665Z" fill="#EEEFE9"/>
<path fill-rule="evenodd" clip-rule="evenodd" d="M13.96 9.75457C14.0797 9.62669 14.2235 9.52366 14.3831 9.45136C14.5426 9.37906 14.7149 9.33892 14.89 9.33322C15.065 9.32753 15.2395 9.35639 15.4035 9.41816C15.5674 9.47994 15.7175 9.57341 15.8453 9.69323L22.2453 15.6932C22.3785 15.818 22.4847 15.9687 22.5573 16.1361C22.6299 16.3035 22.6674 16.4841 22.6674 16.6666C22.6674 16.8491 22.6299 17.0296 22.5573 17.197C22.4847 17.3644 22.3785 17.5152 22.2453 17.6399L15.8453 23.6399C15.7175 23.7597 15.5674 23.8531 15.4034 23.9148C15.2395 23.9766 15.065 24.0054 14.89 23.9997C14.7149 23.994 14.5427 23.9539 14.3831 23.8816C14.2235 23.8094 14.0798 23.7064 13.96 23.5786C13.8402 23.4507 13.7468 23.3006 13.6851 23.1367C13.6233 22.9727 13.5945 22.7983 13.6002 22.6232C13.6059 22.4481 13.646 22.2759 13.7183 22.1163C13.7905 21.9568 13.8935 21.813 14.0213 21.6932L17.9613 17.9999H5.33333C4.97971 17.9999 4.64057 17.8594 4.39052 17.6094C4.14048 17.3593 4 17.0202 4 16.6666C4 16.3129 4.14048 15.9738 4.39052 15.7238C4.64057 15.4737 4.97971 15.3332 5.33333 15.3332H17.9613L14.0213 11.6399C13.8935 11.5202 13.7904 11.3764 13.7181 11.2168C13.6458 11.0573 13.6057 10.885 13.6 10.7099C13.5943 10.5349 13.6232 10.3604 13.6849 10.1964C13.7467 10.0325 13.8402 9.88235 13.96 9.75457Z" fill="#EEEFE9"/>
</svg>
