<svg width="32" height="32" viewBox="0 0 32 32" fill="none" xmlns="http://www.w3.org/2000/svg">
<path fill-rule="evenodd" clip-rule="evenodd" d="M13.3774 3.84406C14.1051 3.21218 15.0364 2.86426 16.0001 2.86426C16.9638 2.86426 17.8951 3.21218 18.6227 3.84406L27.9561 11.9454C28.3886 12.321 28.7354 12.7851 28.9731 13.3064C29.2107 13.8276 29.3336 14.3939 29.3334 14.9667V25.3334C29.3334 26.3943 28.912 27.4117 28.1618 28.1618C27.4117 28.912 26.3943 29.3334 25.3334 29.3334H20.6667C20.1363 29.3334 19.6276 29.1227 19.2525 28.7476C18.8775 28.3725 18.6667 27.8638 18.6667 27.3334V18.2494H13.3334V27.3334C13.3334 27.8638 13.1227 28.3725 12.7476 28.7476C12.3726 29.1227 11.8638 29.3334 11.3334 29.3334H6.66675C5.60588 29.3334 4.58847 28.912 3.83832 28.1618C3.08818 27.4117 2.66675 26.3943 2.66675 25.3334V14.9667C2.66659 14.3939 2.78947 13.8276 3.0271 13.3064C3.26472 12.7851 3.61154 12.321 4.04408 11.9454L13.3774 3.84406ZM16.8747 5.85739C16.6321 5.64653 16.3215 5.5304 16.0001 5.5304C15.6786 5.5304 15.368 5.64653 15.1254 5.85739L5.79208 13.9601C5.64804 14.0853 5.53255 14.2399 5.45342 14.4136C5.37429 14.5872 5.33337 14.7759 5.33341 14.9667V25.3334C5.33341 25.687 5.47389 26.0262 5.72394 26.2762C5.97399 26.5262 6.31313 26.6667 6.66675 26.6667H10.6667V18.2494C10.6667 17.5421 10.9477 16.8639 11.4478 16.3638C11.9479 15.8637 12.6262 15.5827 13.3334 15.5827H18.6667C19.374 15.5827 20.0523 15.8637 20.5524 16.3638C21.0525 16.8639 21.3334 17.5421 21.3334 18.2494V26.6667H25.3334C25.687 26.6667 26.0262 26.5262 26.2762 26.2762C26.5263 26.0262 26.6667 25.687 26.6667 25.3334V14.9667C26.6666 14.7758 26.6255 14.5871 26.5461 14.4134C26.4668 14.2397 26.351 14.0851 26.2067 13.9601L16.8747 5.85739Z" fill="#EEEFE9"/>
</svg>
