<svg width="36" height="36" viewBox="0 0 36 36" fill="none" xmlns="http://www.w3.org/2000/svg">
<g clip-path="url(#clip0_26_297)">
<path d="M23.6838 2.99676C23.6838 4.23649 20.7276 3.07168 18.3897 3.07168C16.0518 3.07168 13.0956 4.23649 13.0956 2.99497C13.0956 1.75524 15.2132 0 18.3897 0C21.5662 0 23.6838 1.75524 23.6838 2.99676Z" fill="url(#paint0_linear_26_297)"/>
<path fill-rule="evenodd" clip-rule="evenodd" d="M14.923 5.74369C13.608 6.04337 12.3797 6.5125 11.5242 7.1618C9.18845 8.93666 8.23763 11.3412 8.23763 15.6758C8.23763 18.7653 6.14963 21.6907 4.6461 23.5851C4.31998 23.9989 4.21834 24.3932 4.2374 24.6304C4.24587 24.7374 4.27551 24.7874 4.28822 24.8052C4.29669 24.8177 4.3221 24.8516 4.42375 24.898C5.88916 25.558 8.09998 26.0396 10.656 26.3446C13.1162 26.6227 15.596 26.7604 18.0783 26.7567C18.64 26.7567 19.1786 26.9446 19.5757 27.2791C19.9729 27.6136 20.196 28.0674 20.196 28.5404C20.196 29.0135 19.9729 29.4673 19.5757 29.8018C19.1786 30.1363 18.64 30.3242 18.0783 30.3242C15.6896 30.3242 12.8181 30.2083 10.0609 29.8783C7.3461 29.5519 4.54869 28.9989 2.42681 28.0446C0.866103 27.3417 0.11222 26.1181 0.0126908 24.8712C-0.084721 23.6957 0.387514 22.5344 1.12446 21.6051C2.64281 19.6893 4.00234 17.5755 4.00234 15.6758C4.00234 10.9292 5.04422 7.27953 8.68869 4.51288C10.224 3.34629 12.1532 2.68093 13.8113 2.30099C15.2017 1.9762 16.6356 1.80236 18.0783 1.78369C18.64 1.78369 19.1786 1.97163 19.5757 2.30615C19.9729 2.64067 20.196 3.09439 20.196 3.56748C20.196 4.04056 19.9729 4.49428 19.5757 4.8288C19.1786 5.16332 18.64 5.35126 18.0783 5.35126C17.4303 5.35126 16.2233 5.44402 14.923 5.74369Z" fill="url(#paint1_linear_26_297)"/>
<path fill-rule="evenodd" clip-rule="evenodd" d="M21.2336 5.74369C22.5487 6.04337 23.7769 6.5125 24.6325 7.1618C26.9682 8.93666 27.919 11.3412 27.919 15.6758C27.919 18.7653 30.007 21.6907 31.5106 23.5851C31.8367 23.9989 31.9383 24.3932 31.9193 24.6304C31.9204 24.6914 31.9029 24.7516 31.8685 24.8052C31.86 24.8177 31.8346 24.8516 31.7329 24.898C30.2675 25.558 28.0567 26.0396 25.5007 26.3446C23.0404 26.6227 20.5607 26.7604 18.0783 26.7567C17.5167 26.7567 16.9781 26.9446 16.5809 27.2791C16.1838 27.6136 15.9607 28.0674 15.9607 28.5404C15.9607 29.0135 16.1838 29.4673 16.5809 29.8018C16.9781 30.1363 17.5167 30.3242 18.0783 30.3242C20.467 30.3242 23.3365 30.2083 26.0958 29.8783C28.8106 29.5519 31.608 28.9989 33.7299 28.0446C35.2906 27.3417 36.0445 26.1181 36.144 24.8712C36.2414 23.6957 35.7692 22.5344 35.0322 21.6051C33.5139 19.6893 32.1543 17.5755 32.1543 15.6758C32.1543 10.9292 31.1125 7.27953 27.468 4.51288C25.9327 3.34629 24.0035 2.68093 22.3454 2.30099C20.955 1.9762 19.521 1.80236 18.0783 1.78369C17.5167 1.78369 16.9781 1.97163 16.5809 2.30615C16.1838 2.64067 15.9607 3.09439 15.9607 3.56748C15.9607 4.04056 16.1838 4.49428 16.5809 4.8288C16.9781 5.16332 17.5167 5.35126 18.0783 5.35126C18.7263 5.35126 19.9334 5.44402 21.2336 5.74369Z" fill="url(#paint2_linear_26_297)"/>
<path fill-rule="evenodd" clip-rule="evenodd" d="M13.8431 28.5405C13.8431 29.4867 14.2893 30.3941 15.0836 31.0632C15.8778 31.7322 16.9551 32.1081 18.0784 32.1081C19.2016 32.1081 20.2789 31.7322 21.0732 31.0632C21.8675 30.3941 22.3137 29.4867 22.3137 28.5405H26.549C26.549 30.4329 25.6565 32.2477 24.068 33.5858C22.4794 34.9239 20.3249 35.6757 18.0784 35.6757C15.8318 35.6757 13.6773 34.9239 12.0888 33.5858C10.5002 32.2477 9.60779 30.4329 9.60779 28.5405H13.8431Z" fill="url(#paint3_linear_26_297)"/>
<!-- <path d="M31.8236 6.81074C31.8236 9.40468 29.5082 11.6486 26.4706 11.6486C23.433 11.6486 21.1177 9.40468 21.1177 6.81074C21.1177 4.2168 23.433 1.9729 26.4706 1.9729C29.5082 1.9729 31.8236 4.2168 31.8236 6.81074Z" fill="#FF6062" stroke="#EEEFE9" stroke-width="2"/> -->
</g>
<defs>
<linearGradient id="paint0_linear_26_297" x1="18.3897" y1="0" x2="18.3897" y2="3.56787" gradientUnits="userSpaceOnUse">
<stop stop-color="#222237"/>
<stop offset="1" stop-color="#7476FD"/>
</linearGradient>
<linearGradient id="paint1_linear_26_297" x1="10.098" y1="1.78369" x2="10.098" y2="30.3242" gradientUnits="userSpaceOnUse">
<stop stop-color="#222237"/>
<stop offset="1" stop-color="#7476FD"/>
</linearGradient>
<linearGradient id="paint2_linear_26_297" x1="26.0587" y1="1.78369" x2="26.0587" y2="30.3242" gradientUnits="userSpaceOnUse">
<stop stop-color="#222237"/>
<stop offset="1" stop-color="#7476FD"/>
</linearGradient>
<linearGradient id="paint3_linear_26_297" x1="18.0784" y1="28.5405" x2="18.0784" y2="35.6757" gradientUnits="userSpaceOnUse">
<stop stop-color="#222237"/>
<stop offset="1" stop-color="#7476FD"/>
</linearGradient>
<clipPath id="clip0_26_297">
<rect width="36" height="36" fill="white"/>
</clipPath>
</defs>
</svg>
