<svg width="32" height="32" viewBox="0 0 32 32" fill="none" xmlns="http://www.w3.org/2000/svg">
<path fill-rule="evenodd" clip-rule="evenodd" d="M11.1373 6.42666C10.02 5.84266 8.37868 5.58399 7.26268 6.13066C6.94001 6.28932 6.79201 6.49999 6.69201 6.83466C6.58401 7.19466 6.56135 7.58266 6.53201 8.11199L6.51868 8.33466L6.55868 9.11732C6.68971 11.7496 7.37391 14.3247 8.56669 16.6749C9.75947 19.0251 11.4341 21.0976 13.4813 22.7573L14.7213 23.7627C16.2055 24.9646 17.9524 25.7992 19.82 26.1987L20.1053 26.2587C20.612 26.368 20.9747 26.4453 21.332 26.432C21.652 26.4227 21.884 26.3413 22.1227 26.0587C22.5733 25.5227 22.892 24.8013 23.0267 24.048C23.16 23.3093 23.0973 22.6453 22.9147 22.1827C22.8553 22.0712 22.7722 21.9741 22.6714 21.8981C22.5705 21.822 22.4542 21.769 22.3307 21.7427L21.32 21.5333L19.224 21.14C19.1543 21.1697 19.0885 21.2077 19.028 21.2533L19.0147 21.264C18.9594 21.3158 18.9056 21.3691 18.8533 21.424C18.8373 21.4382 18.8209 21.4547 18.804 21.4733L18.7987 21.4787C18.5864 21.707 18.3432 21.9045 18.076 22.0653C17.3493 22.4787 16.5747 22.412 15.9373 22.1933C15.004 21.8747 14.344 21.196 13.9213 20.7493L12.7267 19.4867C12.0384 18.7597 11.4097 17.9785 10.8467 17.1507L10.5933 16.7773C10.5276 16.6822 10.4476 16.5702 10.3533 16.4413C10.056 16.0267 9.65068 15.4613 9.39201 14.936L9.25068 14.6387C8.51735 13.028 9.44268 11.4213 10.7493 10.788C10.8425 10.7425 10.9224 10.6736 10.981 10.5881C11.0397 10.5026 11.0752 10.4033 11.084 10.3L11.2613 8.12666L11.34 6.85599C11.3448 6.77338 11.3288 6.69088 11.2934 6.61608C11.258 6.54129 11.2043 6.47527 11.1373 6.42666ZM19.544 27.504L19.2667 28.8067C16.9869 28.32 14.8543 27.3017 13.0427 25.8347L11.8027 24.8293C9.46377 22.9338 7.55056 20.5666 6.18776 17.8822C4.82497 15.1977 4.04317 12.2562 3.89335 9.24932L3.84668 8.31999L3.85201 8.24532L3.86401 8.02132C3.89068 7.51066 3.92935 6.76132 4.13601 6.07066C4.40268 5.17999 4.96401 4.28666 6.08935 3.73466C8.25868 2.67466 10.844 3.26532 12.3733 4.06532C12.8961 4.354 13.3263 4.78489 13.6142 5.30805C13.9021 5.83122 14.0359 6.42525 14 7.02132L13.92 8.31866L13.74 10.516C13.6937 11.0814 13.5009 11.6251 13.1806 12.0934C12.8603 12.5617 12.4235 12.9385 11.9133 13.1867C11.8124 13.2314 11.73 13.3096 11.68 13.408C11.6685 13.4292 11.663 13.4532 11.664 13.4773C11.6622 13.4889 11.6667 13.5067 11.6773 13.5307C11.7129 13.6107 11.7485 13.6862 11.784 13.7573C11.9387 14.0693 12.1373 14.3467 12.388 14.696C12.512 14.868 12.648 15.056 12.7973 15.276L13.0507 15.6493C13.5339 16.3591 14.0734 17.0288 14.664 17.652L15.8587 18.9147C16.2907 19.372 16.5547 19.5853 16.7987 19.6693L16.828 19.6773L16.892 19.6133L16.9253 19.5787C17.0347 19.464 17.2467 19.2427 17.5027 19.064C17.956 18.748 18.7227 18.3307 19.6773 18.5107L21.8373 18.916L22.8733 19.1307C23.94 19.3533 24.8373 20.056 25.32 21.028L25.3387 21.0653L25.3547 21.104C25.7973 22.152 25.856 23.38 25.652 24.5173C25.4467 25.664 24.9533 26.8347 24.1613 27.776C23.352 28.736 22.3533 29.0667 21.42 29.096C20.7027 29.12 19.9733 28.96 19.484 28.8533L19.272 28.808L19.544 27.5013V27.504Z" fill="#BFC0C0"/>
</svg>
