<svg width="33" height="32" viewBox="0 0 33 32" fill="none" xmlns="http://www.w3.org/2000/svg">
<path fill-rule="evenodd" clip-rule="evenodd" d="M16.5001 22.6663C16.1465 22.6663 15.8073 22.5259 15.5573 22.2758C15.3072 22.0258 15.1667 21.6866 15.1667 21.333V10.6663C15.1667 10.3127 15.3072 9.97358 15.5573 9.72353C15.8073 9.47348 16.1465 9.33301 16.5001 9.33301C16.8537 9.33301 17.1928 9.47348 17.4429 9.72353C17.6929 9.97358 17.8334 10.3127 17.8334 10.6663V21.333C17.8334 21.6866 17.6929 22.0258 17.4429 22.2758C17.1928 22.5259 16.8537 22.6663 16.5001 22.6663Z" fill="#EEEFE9"/>
<path fill-rule="evenodd" clip-rule="evenodd" d="M23.1668 15.9998C23.1668 16.3535 23.0264 16.6926 22.7763 16.9426C22.5263 17.1927 22.1871 17.3332 21.8335 17.3332H11.1668C10.8132 17.3332 10.4741 17.1927 10.224 16.9426C9.97397 16.6926 9.8335 16.3535 9.8335 15.9998C9.8335 15.6462 9.97397 15.3071 10.224 15.057C10.4741 14.807 10.8132 14.6665 11.1668 14.6665H21.8335C22.1871 14.6665 22.5263 14.807 22.7763 15.057C23.0264 15.3071 23.1668 15.6462 23.1668 15.9998Z" fill="#EEEFE9"/>
<path fill-rule="evenodd" clip-rule="evenodd" d="M29.8334 15.9998C29.8334 23.3638 23.8641 29.3332 16.5001 29.3332C9.13608 29.3332 3.16675 23.3638 3.16675 15.9998C3.16675 8.63584 9.13608 2.6665 16.5001 2.6665C23.8641 2.6665 29.8334 8.63584 29.8334 15.9998ZM16.5001 26.6665C19.3291 26.6665 22.0422 25.5427 24.0426 23.5423C26.0429 21.5419 27.1667 18.8288 27.1667 15.9998C27.1667 13.1709 26.0429 10.4578 24.0426 8.45736C22.0422 6.45698 19.3291 5.33317 16.5001 5.33317C13.6711 5.33317 10.958 6.45698 8.95761 8.45736C6.95722 10.4578 5.83341 13.1709 5.83341 15.9998C5.83341 18.8288 6.95722 21.5419 8.95761 23.5423C10.958 25.5427 13.6711 26.6665 16.5001 26.6665Z" fill="#EEEFE9"/>
</svg>
