<svg width="32" height="32" viewBox="0 0 32 32" fill="none" xmlns="http://www.w3.org/2000/svg">
<path fill-rule="evenodd" clip-rule="evenodd" d="M16 13.3332C16.5253 13.3332 17.0454 13.2297 17.5307 13.0287C18.016 12.8277 18.457 12.533 18.8284 12.1616C19.1999 11.7902 19.4945 11.3492 19.6955 10.8639C19.8965 10.3786 20 9.85846 20 9.33317C20 8.80788 19.8965 8.28774 19.6955 7.80244C19.4945 7.31713 19.1999 6.87618 18.8284 6.50474C18.457 6.13331 18.016 5.83867 17.5307 5.63765C17.0454 5.43663 16.5253 5.33317 16 5.33317C14.9391 5.33317 13.9217 5.7546 13.1716 6.50474C12.4214 7.25489 12 8.2723 12 9.33317C12 10.394 12.4214 11.4115 13.1716 12.1616C13.9217 12.9117 14.9391 13.3332 16 13.3332ZM16 15.9998C17.7681 15.9998 19.4638 15.2975 20.714 14.0472C21.9643 12.797 22.6667 11.1013 22.6667 9.33317C22.6667 7.56506 21.9643 5.86937 20.714 4.61913C19.4638 3.36888 17.7681 2.6665 16 2.6665C14.2319 2.6665 12.5362 3.36888 11.286 4.61913C10.0357 5.86937 9.33333 7.56506 9.33333 9.33317C9.33333 11.1013 10.0357 12.797 11.286 14.0472C12.5362 15.2975 14.2319 15.9998 16 15.9998ZM6.18533 20.5972C7.712 18.5732 10.012 17.3332 12.952 17.3332H19.048C21.988 17.3332 24.288 18.5732 25.8147 20.5972C27.3093 22.5798 28 25.2212 28 27.9998C28 28.3535 27.8595 28.6926 27.6095 28.9426C27.3594 29.1927 27.0203 29.3332 26.6667 29.3332C26.313 29.3332 25.9739 29.1927 25.7239 28.9426C25.4738 28.6926 25.3333 28.3535 25.3333 27.9998C25.3333 25.6238 24.7387 23.5998 23.6867 22.2025C22.6667 20.8505 21.156 19.9998 19.0467 19.9998H12.9533C10.844 19.9998 9.33333 20.8505 8.31333 22.2025C7.26 23.5998 6.66667 25.6238 6.66667 27.9998C6.66667 28.3535 6.52619 28.6926 6.27614 28.9426C6.02609 29.1927 5.68696 29.3332 5.33333 29.3332C4.97971 29.3332 4.64057 29.1927 4.39052 28.9426C4.14048 28.6926 4 28.3535 4 27.9998C4 25.2212 4.69067 22.5798 6.18533 20.5972Z" fill="#EEEFE9"/>
<path fill-rule="evenodd" clip-rule="evenodd" d="M4 27.9998C4 27.6462 4.14048 27.3071 4.39052 27.057C4.64057 26.807 4.97971 26.6665 5.33333 26.6665H26.616C26.9696 26.6665 27.3088 26.807 27.5588 27.057C27.8089 27.3071 27.9493 27.6462 27.9493 27.9998C27.9493 28.3535 27.8089 28.6926 27.5588 28.9426C27.3088 29.1927 26.9696 29.3332 26.616 29.3332H5.33333C4.97971 29.3332 4.64057 29.1927 4.39052 28.9426C4.14048 28.6926 4 28.3535 4 27.9998Z" fill="#EEEFE9"/>
</svg>
