<svg width="32" height="32" viewBox="0 0 32 32" fill="none" xmlns="http://www.w3.org/2000/svg">
<path fill-rule="evenodd" clip-rule="evenodd" d="M29.3334 15.9998C29.3334 23.3638 23.3641 29.3332 16.0001 29.3332C8.63608 29.3332 2.66675 23.3638 2.66675 15.9998C2.66675 8.63584 8.63608 2.6665 16.0001 2.6665C23.3641 2.6665 29.3334 8.63584 29.3334 15.9998ZM16.0001 26.6665C18.8291 26.6665 21.5422 25.5427 23.5426 23.5423C25.5429 21.5419 26.6667 18.8288 26.6667 15.9998C26.6667 13.1709 25.5429 10.4578 23.5426 8.45736C21.5422 6.45698 18.8291 5.33317 16.0001 5.33317C13.1711 5.33317 10.458 6.45698 8.45761 8.45736C6.45722 10.4578 5.33341 13.1709 5.33341 15.9998C5.33341 18.8288 6.45722 21.5419 8.45761 23.5423C10.458 25.5427 13.1711 26.6665 16.0001 26.6665Z" fill="#EEEFE9"/>
<path d="M14.6667 22.6663C14.6667 22.3127 14.8072 21.9736 15.0573 21.7235C15.3073 21.4735 15.6465 21.333 16.0001 21.333C16.3537 21.333 16.6928 21.4735 16.9429 21.7235C17.1929 21.9736 17.3334 22.3127 17.3334 22.6663C17.3334 23.02 17.1929 23.3591 16.9429 23.6092C16.6928 23.8592 16.3537 23.9997 16.0001 23.9997C15.6465 23.9997 15.3073 23.8592 15.0573 23.6092C14.8072 23.3591 14.6667 23.02 14.6667 22.6663Z" fill="#EEEFE9"/>
<path fill-rule="evenodd" clip-rule="evenodd" d="M17.6402 10.5744C17.0749 10.2744 16.3762 10.1731 15.8722 10.1917C13.9522 10.2664 13.2949 11.4384 13.3149 11.9317C13.3286 12.2852 13.2015 12.6296 12.9613 12.8893C12.7211 13.149 12.3876 13.3026 12.0342 13.3164C11.6807 13.3302 11.3363 13.203 11.0766 12.9629C10.8169 12.7227 10.6633 12.3892 10.6495 12.0357C10.5535 9.55842 12.9455 7.63575 15.7695 7.52775C16.6229 7.49441 17.8149 7.64775 18.8922 8.22108C20.0202 8.82108 21.0295 9.89975 21.2775 11.6011C21.5082 13.1877 20.4762 14.3877 19.6042 15.0224C18.9375 15.5064 18.3309 16.0171 17.9042 16.5704C17.4869 17.1104 17.2935 17.6197 17.3135 18.1424C17.319 18.4907 17.188 18.8274 16.9484 19.0803C16.7089 19.3333 16.3798 19.4824 16.0317 19.4958C15.6836 19.5092 15.344 19.3859 15.0857 19.1521C14.8274 18.9184 14.6708 18.5928 14.6495 18.2451C14.5975 16.9171 15.1229 15.8091 15.7935 14.9411C16.4535 14.0877 17.3015 13.3984 18.0362 12.8651C18.2762 12.6904 18.4495 12.4997 18.5482 12.3317C18.6402 12.1717 18.6495 12.0651 18.6389 11.9851C18.5322 11.2624 18.1535 10.8477 17.6402 10.5744Z" fill="#EEEFE9"/>
</svg>
