<svg width="32" height="32" viewBox="0 0 32 32" fill="none" xmlns="http://www.w3.org/2000/svg">
<path fill-rule="evenodd" clip-rule="evenodd" d="M23.3345 10.928C20.8372 6.6 15.3239 5.11733 11.0225 7.60266C9.35952 8.55926 8.04863 10.0258 7.28388 11.7853C7.21636 11.9494 7.11678 12.0983 6.99097 12.2234C6.86516 12.3485 6.71565 12.4473 6.5512 12.5138C6.38675 12.5804 6.21067 12.6135 6.03327 12.6112C5.85587 12.6088 5.68072 12.5711 5.51808 12.5002C5.35545 12.4293 5.20859 12.3267 5.08613 12.1983C4.96366 12.0699 4.86805 11.9184 4.80489 11.7526C4.74172 11.5868 4.71229 11.4101 4.71829 11.2328C4.7243 11.0555 4.76564 10.8811 4.83988 10.72C5.83234 8.43775 7.53249 6.53519 9.68921 5.29333C15.2732 2.06666 22.4145 3.99866 25.6439 9.59333C26.4268 10.9478 26.9309 12.4452 27.1265 13.9973L24.4812 14.3307C24.3297 13.1313 23.9398 11.9744 23.3345 10.928Z" fill="#EEEFE9"/>
<path fill-rule="evenodd" clip-rule="evenodd" d="M28.3573 9.98519C28.9306 10.2519 29.1786 10.9319 28.912 11.5025L27.276 15.0159C27.1953 15.1882 27.0815 15.343 26.941 15.4714C26.8005 15.5997 26.6361 15.6991 26.4572 15.7639C26.2782 15.8286 26.0883 15.8575 25.8982 15.8488C25.7081 15.8401 25.5216 15.794 25.3493 15.7132L21.8346 14.0652C21.6947 14.0041 21.5684 13.9156 21.4632 13.8049C21.358 13.6942 21.2761 13.5636 21.2223 13.4207C21.1684 13.2778 21.1438 13.1256 21.1498 12.973C21.1558 12.8204 21.1923 12.6706 21.2572 12.5324C21.3221 12.3941 21.414 12.2703 21.5275 12.1682C21.6411 12.0661 21.7739 11.9878 21.9182 11.9379C22.0626 11.888 22.2154 11.8676 22.3678 11.8777C22.5201 11.8879 22.6689 11.9285 22.8053 11.9972L25.5573 13.2892L26.8373 10.5372C26.9008 10.4011 26.9905 10.2788 27.1012 10.1774C27.212 10.0759 27.3417 9.99734 27.4829 9.94607C27.624 9.8948 27.7739 9.87187 27.924 9.87858C28.074 9.8853 28.2213 9.92152 28.3573 9.98519ZM8.66529 21.0719C11.1626 25.3999 16.676 26.8825 20.9773 24.3972C22.6403 23.4406 23.9512 21.974 24.716 20.2145C24.7835 20.0505 24.8831 19.9015 25.0089 19.7764C25.1347 19.6513 25.2842 19.5526 25.4486 19.486C25.6131 19.4194 25.7892 19.3864 25.9666 19.3887C26.144 19.391 26.3191 19.4288 26.4818 19.4997C26.6444 19.5706 26.7912 19.6732 26.9137 19.8016C27.0362 19.9299 27.1318 20.0814 27.1949 20.2472C27.2581 20.413 27.2875 20.5898 27.2815 20.7671C27.2755 20.9444 27.2342 21.1187 27.16 21.2799C26.1675 23.5621 24.4673 25.4647 22.3106 26.7065C16.7266 29.9332 9.58396 28.0012 6.35596 22.4065C5.57308 21.0521 5.06897 19.5547 4.87329 18.0025L7.51862 17.6692C7.66529 18.8332 8.03862 19.9892 8.66529 21.0719Z" fill="#EEEFE9"/>
<path fill-rule="evenodd" clip-rule="evenodd" d="M3.64261 22.0145C3.3679 21.8868 3.15516 21.6552 3.05115 21.3707C2.94714 21.0862 2.96037 20.772 3.08794 20.4972L4.72394 16.9839C4.80458 16.8115 4.91839 16.6567 5.05889 16.5284C5.19938 16.4 5.3638 16.3006 5.54274 16.2359C5.72167 16.1711 5.91162 16.1422 6.10172 16.1509C6.29182 16.1596 6.47834 16.2057 6.65061 16.2865L10.1639 17.9345C10.3051 17.9947 10.4327 18.0827 10.5391 18.1933C10.6455 18.3038 10.7286 18.4347 10.7833 18.5781C10.8381 18.7214 10.8634 18.8743 10.8577 19.0277C10.8521 19.1811 10.8156 19.3317 10.7505 19.4706C10.6853 19.6096 10.5929 19.734 10.4786 19.8364C10.3644 19.9389 10.2307 20.0173 10.0855 20.0669C9.94026 20.1165 9.78654 20.1364 9.63349 20.1254C9.48043 20.1143 9.33117 20.0725 9.19461 20.0025L6.44261 18.7105L5.16261 21.4625C5.09914 21.5987 5.00945 21.7209 4.89868 21.8224C4.7879 21.9238 4.65822 22.0024 4.51705 22.0537C4.37588 22.1049 4.22598 22.1279 4.07594 22.1212C3.92589 22.1144 3.77864 22.0782 3.64261 22.0145Z" fill="#EEEFE9"/>
</svg>
