<svg width="32" height="32" viewBox="0 0 32 32" fill="none" xmlns="http://www.w3.org/2000/svg">
<path fill-rule="evenodd" clip-rule="evenodd" d="M15.9999 5.33341C15.2927 5.33341 14.6144 5.61437 14.1143 6.11446C13.6142 6.61456 13.3333 7.29284 13.3333 8.00008H18.6666C18.6666 7.29284 18.3856 6.61456 17.8855 6.11446C17.3854 5.61437 16.7072 5.33341 15.9999 5.33341ZM12.4719 4.00008C13.4119 3.17075 14.6479 2.66675 15.9999 2.66675C17.3519 2.66675 18.5866 3.17075 19.5279 4.00008H23.9999C24.7072 4.00008 25.3854 4.28103 25.8855 4.78113C26.3856 5.28123 26.6666 5.9595 26.6666 6.66675V26.6667C26.6666 27.374 26.3856 28.0523 25.8855 28.5524C25.3854 29.0525 24.7072 29.3334 23.9999 29.3334H7.99992C7.29267 29.3334 6.6144 29.0525 6.1143 28.5524C5.6142 28.0523 5.33325 27.374 5.33325 26.6667V6.66675C5.33325 5.9595 5.6142 5.28123 6.1143 4.78113C6.6144 4.28103 7.29267 4.00008 7.99992 4.00008H12.4719ZM10.8346 6.66675H7.99992V26.6667H23.9999V6.66675H21.1653C21.2755 7.0943 21.3315 7.53875 21.3333 8.00008V9.33341C21.3333 9.68704 21.1928 10.0262 20.9427 10.2762C20.6927 10.5263 20.3535 10.6667 19.9999 10.6667H11.9999C11.6463 10.6667 11.3072 10.5263 11.0571 10.2762C10.8071 10.0262 10.6666 9.68704 10.6666 9.33341V8.00008C10.6684 7.53875 10.7244 7.0943 10.8346 6.66675ZM10.6666 14.6667C10.6666 14.3131 10.8071 13.974 11.0571 13.7239C11.3072 13.4739 11.6463 13.3334 11.9999 13.3334H19.9999C20.3535 13.3334 20.6927 13.4739 20.9427 13.7239C21.1928 13.974 21.3333 14.3131 21.3333 14.6667C21.3333 15.0204 21.1928 15.3595 20.9427 15.6096C20.6927 15.8596 20.3535 16.0001 19.9999 16.0001H11.9999C11.6463 16.0001 11.3072 15.8596 11.0571 15.6096C10.8071 15.3595 10.6666 15.0204 10.6666 14.6667ZM10.6666 20.0001C10.6666 19.6465 10.8071 19.3073 11.0571 19.0573C11.3072 18.8072 11.6463 18.6667 11.9999 18.6667H15.9999C16.3535 18.6667 16.6927 18.8072 16.9427 19.0573C17.1928 19.3073 17.3333 19.6465 17.3333 20.0001C17.3333 20.3537 17.1928 20.6928 16.9427 20.9429C16.6927 21.1929 16.3535 21.3334 15.9999 21.3334H11.9999C11.6463 21.3334 11.3072 21.1929 11.0571 20.9429C10.8071 20.6928 10.6666 20.3537 10.6666 20.0001Z" fill="#EEEFE9"/>
</svg>
