<svg width="108" height="35" viewBox="0 0 108 35" fill="none" xmlns="http://www.w3.org/2000/svg">
<path d="M94.4119 0C98.3799 0 101.468 1.184 103.676 3.552C105.916 5.888 107.036 9.28 107.036 13.728V34.272H97.5319V14.016C97.5319 12 97.0039 10.48 95.9479 9.456C94.8919 8.4 93.4839 7.872 91.7239 7.872C89.8359 7.872 88.3319 8.432 87.2119 9.552C86.1239 10.64 85.5799 12.288 85.5799 14.496V34.272H76.0759V14.016C76.0759 12 75.5799 10.48 74.5879 9.456C73.6279 8.4 72.2999 7.872 70.6039 7.872C68.7799 7.872 67.3238 8.432 66.2358 9.552C65.1478 10.64 64.6039 12.288 64.6039 14.496V34.272H55.0999V0.672001H64.3159V4.416C65.3399 2.976 66.6519 1.888 68.2519 1.152C69.8839 0.384001 71.7719 0 73.9159 0C76.1239 0 78.0438 0.400003 79.6758 1.2C81.3398 2 82.6838 3.168 83.7078 4.704C84.8598 3.168 86.3639 2 88.2199 1.2C90.0759 0.400003 92.1399 0 94.4119 0Z" fill="white"/>
<path d="M51.984 0.671875V20.3039C51.984 25.0399 50.624 28.6719 47.904 31.1999C45.216 33.6959 41.408 34.9439 36.48 34.9439C34.272 34.9439 32.272 34.6399 30.48 34.0319C28.72 33.4239 27.232 32.5599 26.016 31.4399C24.8 32.5599 23.296 33.4239 21.504 34.0319C19.744 34.6399 17.744 34.9439 15.504 34.9439C10.608 34.9439 6.8 33.6799 4.08 31.1519C1.36 28.6239 0 25.0079 0 20.3039V0.671875H9.50401V20.0159C9.50401 22.4159 9.984 24.1919 10.944 25.3439C11.936 26.4959 13.408 27.0719 15.36 27.0719C17.312 27.0719 18.768 26.4959 19.728 25.3439C20.72 24.1919 21.216 22.4159 21.216 20.0159V0.671875H30.72V20.0159C30.72 22.4159 31.216 24.1919 32.208 25.3439C33.2 26.4959 34.688 27.0719 36.672 27.0719C38.624 27.0719 40.08 26.4959 41.04 25.3439C42 24.1919 42.48 22.4159 42.48 20.0159V0.671875H51.984Z" fill="white"/>
</svg>
